<?xml version="1.0" encoding="UTF-8" standalone="no"?>
<!-- Created with Inkscape (http://www.inkscape.org/) -->

<svg
   xmlns:dc="http://purl.org/dc/elements/1.1/"
   xmlns:cc="http://creativecommons.org/ns#"
   xmlns:rdf="http://www.w3.org/1999/02/22-rdf-syntax-ns#"
   xmlns:svg="http://www.w3.org/2000/svg"
   xmlns="http://www.w3.org/2000/svg"
   version="1.1"
   width="497"
   height="506"
   id="svg3039">
  <metadata
     id="metadata3045">
    <rdf:RDF>
      <cc:Work
         rdf:about="">
        <dc:format>image/svg+xml</dc:format>
        <dc:type
           rdf:resource="http://purl.org/dc/dcmitype/StillImage" />
        <dc:title></dc:title>
      </cc:Work>
    </rdf:RDF>
  </metadata>
  <defs
     id="defs3043" />
  <path
     d="M 203.91342,8.7241595 33.353867,150.4781 335.8128,252.05578 470.74436,79.980149 z"
     id="path3049"
     style="fill:none;stroke:#000000;stroke-width:10;stroke-linecap:butt;stroke-linejoin:round;stroke-miterlimit:4;stroke-opacity:1;stroke-dasharray:none" />
  <path
     d="M 334.37872,250.77096 321.76066,496.24968 65.958067,386.70193 33.265807,153.26773"
     id="path3819"
     style="fill:none;stroke:#000000;stroke-width:10;stroke-linecap:butt;stroke-linejoin:round;stroke-miterlimit:4;stroke-opacity:1;stroke-dasharray:none" />
  <path
     d="M 323.4813,495.10258 441.63227,312.14064 471.45679,82.721277"
     id="path3821"
     style="fill:none;stroke:#000000;stroke-width:10;stroke-linecap:butt;stroke-linejoin:miter;stroke-miterlimit:4;stroke-opacity:1;stroke-dasharray:none" />
  <path
     d="M 283.76407,33.059891 123.05626,179.07441 143.25953,418.75862"
     id="path3837"
     style="fill:none;stroke:#000000;stroke-width:10;stroke-linecap:butt;stroke-linejoin:miter;stroke-miterlimit:4;stroke-opacity:1;stroke-dasharray:none" />
  <path
     d="M 231.41924,455.49183 225.90926,213.97096 376.51543,53.263158"
     id="path3839"
     style="fill:none;stroke:#000000;stroke-width:10;stroke-linecap:butt;stroke-linejoin:miter;stroke-miterlimit:4;stroke-opacity:1;stroke-dasharray:none" />
  <path
     d="M 429.77858,129.48457 158.87114,50.508167"
     id="path3841"
     style="fill:none;stroke:#000000;stroke-width:10;stroke-linecap:butt;stroke-linejoin:miter;stroke-miterlimit:4;stroke-opacity:1;stroke-dasharray:none" />
  <path
     d="M 99.179673,98.261343 386.61706,185.50272"
     id="path3843"
     style="fill:none;stroke:#000000;stroke-width:10;stroke-linecap:butt;stroke-linejoin:miter;stroke-miterlimit:4;stroke-opacity:1;stroke-dasharray:none" />
  <path
     d="M 370.08711,422.43194 389.37205,184.58439"
     id="path3845"
     style="fill:none;stroke:#000000;stroke-width:10;stroke-linecap:butt;stroke-linejoin:miter;stroke-miterlimit:4;stroke-opacity:1;stroke-dasharray:none" />
  <path
     d="M 409.57532,359.98548 433.45191,130.4029"
     id="path3847"
     style="fill:none;stroke:#000000;stroke-width:10;stroke-linecap:butt;stroke-linejoin:miter;stroke-miterlimit:4;stroke-opacity:1;stroke-dasharray:none" />
  <path
     d="M 461.00182,167.13612 329.68058,342.53721 46.834846,241.52087"
     id="path3849"
     style="fill:none;stroke:#000000;stroke-width:10;stroke-linecap:butt;stroke-linejoin:miter;stroke-miterlimit:4;stroke-opacity:1;stroke-dasharray:none" />
  <path
     d="M 55.099819,319.57895 324.1706,427.02359 451.81851,244.27586"
     id="path3851"
     style="fill:none;stroke:#000000;stroke-width:10;stroke-linecap:butt;stroke-linejoin:miter;stroke-miterlimit:4;stroke-opacity:1;stroke-dasharray:none" />
  <path
     d="M 256.21415,219.02177 A 61.068966,61.987297 0 1 1 230.4588,168.44919 l -35.31361,50.57258 z"
     transform="translate(-58.77314,-33.978222)"
     id="path3853"
     style="fill:#ffffff;fill-opacity:1;stroke:#000000;stroke-width:10;stroke-linejoin:round;stroke-miterlimit:4;stroke-opacity:1;stroke-dasharray:none" />
  <path
     d="m 256.21415,219.02177 a 61.068966,61.068966 0 1 1 -21.15307,-46.21839 l -39.91589,46.21839 z"
     transform="translate(130.86207,-24.335749)"
     id="path3853-3"
     style="fill:#ffffff;fill-opacity:1;stroke:#000000;stroke-width:10;stroke-linejoin:round;stroke-miterlimit:4;stroke-opacity:1;stroke-dasharray:none" />
  <path
     d="M 353.07562,383.86024 A 129.48457,65.660622 0 1 1 107.90413,341.66456 l 121.67845,22.45342 z"
     transform="matrix(0.98899736,0,0,1.0212989,8.5176154,-32.137527)"
     id="path3881"
     style="fill:#ac2000;fill-opacity:1;stroke:#000000;stroke-width:10;stroke-linejoin:round;stroke-miterlimit:4;stroke-opacity:1;stroke-dasharray:none" />
  <path
     d="m 150.59868,195.06228 a 11.019966,14.693281 0 1 1 -4.70199,-11.50358 l -6.31048,12.04565 z"
     transform="translate(-7.3466426,-7.346643)"
     id="path3883"
     style="fill:#000000;fill-opacity:1;stroke:#000000;stroke-width:10;stroke-linejoin:round;stroke-miterlimit:4;stroke-opacity:1;stroke-dasharray:none" />
  <path
     d="m 150.59868,195.06228 a 11.019966,14.693281 0 1 1 -4.70199,-11.50358 l -6.31048,12.04565 z"
     transform="translate(183.66605,-1.8367533)"
     id="path3883-4"
     style="fill:#000000;fill-opacity:1;stroke:#000000;stroke-width:10;stroke-linejoin:round;stroke-miterlimit:4;stroke-opacity:1;stroke-dasharray:none" />
  <path
     d="m 59.691289,153.62522 c -7.828766,-2.65414 -14.105404,-5.20439 -13.948084,-5.66721 0.15732,-0.46282 12.053249,-10.60064 26.4354,-22.52848 l 26.149362,-21.68698 22.031553,6.69593 c 12.11736,3.68276 22.52507,6.86044 23.12826,7.0615 0.60319,0.20106 -2.81738,0.4034 -7.60126,0.44964 -11.30939,0.10932 -20.11944,2.20005 -29.31123,6.95591 -12.31291,6.37072 -21.971605,15.72618 -28.366361,27.4758 -1.850854,3.40072 -3.571815,6.15759 -3.824355,6.12637 -0.252541,-0.0312 -6.86452,-2.22833 -14.693285,-4.88248 z"
     id="path3943"
     style="fill:#ffff00;fill-opacity:1;stroke:none" />
  <path
     d="m 169.3558,126.90119 c -2.29583,-1.36179 -6.85848,-3.57712 -8.90182,-4.32214 -0.79222,-0.28885 -1.39443,-0.57115 -1.33826,-0.62732 0.0928,-0.0928 14.11711,4.04425 14.3632,4.23708 0.11122,0.0871 -1.85972,1.88383 -2.05688,1.87503 -0.0631,-0.003 -0.99294,-0.52601 -2.06624,-1.16265 z"
     id="path3945"
     style="fill:#ffff00;fill-opacity:1;stroke:none" />
  <path
     d="m 211.67495,204.57011 c -8.34245,-2.8665 -10.06735,-3.77349 -9.90479,-5.20819 0.10826,-0.95548 0.45592,-4.8366 0.77257,-8.62471 0.93228,-11.15278 2.70022,-10.47628 -28.79953,-11.01997 l -26.60294,-0.45916 14.08762,-20.09901 c 8.8027,-12.55894 15.96327,-21.77076 19.08742,-24.55526 l 4.9998,-4.45625 43.33596,13.15653 43.33597,13.15652 -7.58151,8.18458 c -26.10481,28.18131 -40.81598,43.53097 -41.65995,43.46808 -0.53294,-0.0397 -5.51472,-1.63414 -11.07062,-3.54316 z"
     id="path3947"
     style="fill:#ffff00;fill-opacity:1;stroke:none" />
  <path
     d="m 236.92904,134.36429 c -21.97105,-6.70465 -40.44298,-12.36369 -41.04873,-12.57565 -1.28915,-0.45108 43.30406,-41.251072 45.08624,-41.251072 0.66208,0 16.65775,4.506503 35.54593,10.01445 18.88818,5.507948 36.73251,10.707002 39.65406,11.553452 l 5.31192,1.53901 -7.60774,8.3443 c -16.54662,18.14863 -33.32899,34.67445 -35.15765,34.62023 -1.01017,-0.03 -19.81298,-5.54007 -41.78403,-12.24472 z"
     id="path3949"
     style="fill:#ffff00;fill-opacity:1;stroke:none" />
  <path
     d="m 144.42184,106.38747 c -19.31135,-5.8836 -35.11811,-10.948352 -35.12613,-11.255006 -0.008,-0.306655 10.56754,-9.350405 23.50126,-20.097222 l 23.51584,-19.539667 35.48688,10.332671 c 19.51779,5.68297 35.5801,10.411956 35.69404,10.508857 0.11393,0.0969 -9.88423,9.346621 -22.21814,20.554931 -12.92316,11.743766 -23.12803,20.339366 -24.08375,20.285816 -0.91215,-0.0511 -17.45864,-4.90678 -36.77,-10.79038 l 0,0 z"
     id="path3951"
     style="fill:#ffff00;fill-opacity:1;stroke:none" />
  <path
     d="m 201.53461,57.279519 -34.93526,-10.261007 19.32364,-16.119278 19.32365,-16.119278 34.66486,9.231801 c 19.06567,5.07749 34.56249,9.473906 34.43739,9.769814 -0.36474,0.862667 -36.91326,33.901939 -37.41985,33.826936 -0.25254,-0.03739 -16.18004,-4.685434 -35.39443,-10.328988 z"
     id="path3953"
     style="fill:#ffff00;fill-opacity:1;stroke:none" />
  <path
     d="M 289.56926,82.952884 C 268.77083,76.826185 251.50215,71.55682 251.19441,71.243186 c -0.91458,-0.932106 36.3959,-34.351771 38.00406,-34.040908 6.74131,1.303124 74.88137,20.195946 74.75404,20.726645 -0.46948,1.956877 -33.70611,36.368883 -35.03453,36.273507 -0.84337,-0.06055 -18.5503,-5.122845 -39.34872,-11.249546 l 0,0 z"
     id="path3955"
     style="fill:#ffff00;fill-opacity:1;stroke:none" />
  <path
     d="m 385.85098,110.98532 c -23.40247,-6.89717 -42.61853,-12.811096 -42.70236,-13.142056 -0.31169,-1.23046 33.58132,-36.589769 35.05171,-36.568141 2.21591,0.0326 81.96099,21.503573 82.16808,22.123362 0.22878,0.684686 -30.77149,40.326635 -31.44752,40.213875 -0.28599,-0.0477 -19.66745,-5.72987 -43.06991,-12.62704 l 0,0 z"
     id="path3957"
     style="fill:#ffff00;fill-opacity:1;stroke:none" />
  <path
     d="m 369.92867,174.74631 -15.31072,-4.70376 8.19366,-9.43904 c 9.47258,-10.91235 10.08819,-12.98973 5.20908,-17.57817 -1.64152,-1.54373 -7.11706,-4.88657 -12.16788,-7.42854 -11.55308,-5.81443 -20.80327,-7.745 -33.75474,-7.0448 l -8.95982,0.4844 10.26716,-10.9707 c 5.64694,-6.03389 10.71198,-10.8044 11.25565,-10.60114 0.54367,0.20326 19.99792,5.86917 43.23168,12.59091 23.23376,6.72173 42.58702,12.51545 43.00724,12.87493 0.61281,0.52422 -30.74221,41.74239 -34.61631,45.50535 -0.76549,0.74353 -5.13185,-0.24145 -16.355,-3.68944 l 0,0 z"
     id="path3959"
     style="fill:#ffff00;fill-opacity:1;stroke:none" />
  <path
     d="m 339.85127,187.29347 c 2.73336,-3.62301 6.78524,-7.57623 7.7653,-7.57623 0.90121,0 26.80277,7.65051 29.35784,8.67139 0.50508,0.2018 -7.9138,0.39954 -18.70863,0.43942 -18.5484,0.0685 -19.56034,-0.0158 -18.41451,-1.53458 z"
     id="path3961"
     style="fill:#ffff00;fill-opacity:1;stroke:none" />
  <path
     d="m 250.1084,217.45476 -14.8297,-5.16698 12.07471,-13.05012 12.07472,-13.05012 0.54872,11.22855 c 0.41991,8.59279 1.10127,12.84531 2.90266,18.11603 1.29468,3.78812 2.2875,6.93296 2.20628,6.98855 -0.0812,0.0556 -6.82105,-2.22407 -14.97739,-5.06591 l 0,0 z"
     id="path3963"
     style="fill:#ffff00;fill-opacity:1;stroke:none" />
  <path
     d="m 87.241198,250.21213 c -19.950726,-7.13044 -36.375573,-13.02742 -36.49966,-13.1044 -0.327904,-0.20342 -11.168616,-77.98477 -10.905707,-78.24767 0.121691,-0.1217 7.315154,2.13443 15.985473,5.01362 l 15.764217,5.23488 -0.666717,3.69726 c -0.366695,2.0335 -0.646063,8.243 -0.620818,13.7989 0.08143,17.92023 6.497804,33.25778 19.208926,45.91651 8.600864,8.56542 16.329038,13.35524 26.891278,16.66684 l 7.57622,2.3754 0.0125,3.79467 c 0.007,2.08707 0.26171,4.72448 0.56627,5.86092 0.30455,1.13643 0.19559,2.04178 -0.24213,2.01188 -0.43771,-0.0299 -17.11917,-5.88836 -37.069892,-13.01881 z"
     id="path3991"
     style="fill:#0000ff;fill-opacity:1;stroke:none" />
  <path
     d="m 178.61506,282.84366 c -23.23375,-8.34461 -42.32969,-15.24676 -42.4354,-15.33811 -0.10572,-0.0913 -0.46984,-3.495 -0.80915,-7.56367 l -0.61694,-7.39759 7.23746,-0.51756 c 8.89343,-0.63599 19.9746,-4.0881 27.89975,-8.69162 8.57213,-4.97932 19.89511,-16.60174 24.179,-24.81841 1.90916,-3.66185 3.77233,-6.6579 4.14038,-6.6579 0.36805,0 5.40781,1.58522 11.19947,3.52272 l 10.5303,3.52271 0.57083,7.72683 c 0.99296,13.44073 1.88853,71.55446 1.10137,71.46771 -0.41463,-0.0457 -19.76331,-6.9105 -42.99707,-15.25511 z"
     id="path3993"
     style="fill:#0000ff;fill-opacity:1;stroke:none" />
  <path
     d="m 278.71307,318.56941 c -24.749,-8.84789 -45.05934,-16.12488 -45.13408,-16.17108 -0.28479,-0.17603 -2.07016,-78.99712 -1.79558,-79.2717 0.1589,-0.15889 9.90323,3.0234 21.65407,7.07177 l 21.36518,7.36068 6.15196,5.74605 c 11.10693,10.37408 22.50997,15.513 38.61568,17.40263 8.50109,0.99741 9.1162,1.20628 8.75545,2.97307 -0.21341,1.04516 -1.08829,17.19049 -1.9442,35.87852 -0.8559,18.68802 -1.80686,34.22998 -2.11324,34.53767 -0.30638,0.30771 -20.80624,-6.67972 -45.55524,-15.52761 z"
     id="path3995"
     style="fill:#0000ff;fill-opacity:1;stroke:none" />
  <path
     d="m 277.8383,341.21497 c -23.71488,-4.00629 -43.19023,-7.37264 -43.27856,-7.48078 -0.0883,-0.10814 -0.34727,-4.57619 -0.57541,-9.929 l -0.4148,-9.73237 8.33765,2.99287 c 4.58571,1.64607 24.96837,8.91838 45.29481,16.16068 21.87975,7.79575 36.95946,13.63614 36.96279,14.31574 0.003,0.63135 -0.71755,1.10496 -1.60144,1.05247 -0.88389,-0.0525 -21.01016,-3.37332 -44.72504,-7.37961 l 0,0 z"
     id="path3997"
     style="fill:#0000ff;fill-opacity:1;stroke:none" />
  <path
     d="m 304.20699,413.18199 c -8.20193,-3.325 -14.70107,-6.257 -14.44253,-6.51554 0.25854,-0.25853 3.82502,-1.43864 7.92552,-2.62246 4.10049,-1.18382 11.17471,-3.54941 15.72047,-5.25687 l 8.26503,-3.10447 -0.58369,7.49733 c -0.32102,4.12354 -0.58616,9.46027 -0.58919,11.8594 -0.003,2.39914 -0.31544,4.32292 -0.69425,4.27507 -0.37881,-0.0479 -7.39942,-2.80746 -15.60136,-6.13246 z"
     id="path3999"
     style="fill:#0000ff;fill-opacity:1;stroke:none" />
  <path
     d="m 277.33557,471.16831 c -21.46597,-9.24433 -39.32282,-16.92524 -39.68188,-17.06867 -0.35906,-0.14344 -0.94007,-9.66221 -1.29112,-21.15282 l -0.63828,-20.89201 7.26027,-0.0159 c 3.99315,-0.009 11.08697,-0.41906 15.76406,-0.91179 l 8.50378,-0.89588 25.47444,10.16824 c 14.01094,5.59253 25.80298,10.48452 26.20453,10.87111 0.57241,0.55106 -1.804,56.30843 -2.41342,56.62576 -0.0843,0.0439 -17.71641,-7.4837 -39.18238,-16.72803 z"
     id="path4001"
     style="fill:#0000ff;fill-opacity:1;stroke:none" />
  <path
     d="m 187.3392,432.70909 c -20.45581,-8.78978 -37.56009,-16.12227 -38.00953,-16.29441 -0.84687,-0.32437 -2.91722,-20.67571 -2.17849,-21.41443 0.22962,-0.22963 2.67863,0.58248 5.44223,1.80467 16.04874,7.09752 41.33374,12.83691 65.28027,14.81785 l 7.11706,0.58874 0,5.7456 c 0,3.16008 0.27069,11.38979 0.60154,18.28825 0.35129,7.3247 0.25578,12.52238 -0.22958,12.49391 -0.45712,-0.0268 -17.56769,-7.2404 -38.0235,-16.03018 z"
     id="path4003"
     style="fill:#0000ff;fill-opacity:1;stroke:none" />
  <path
     d="m 179.07423,323.48477 -39.02904,-7.5411 -1.48372,-17.83463 c -0.81604,-9.80905 -1.39322,-17.9462 -1.28261,-18.08256 0.54448,-0.67129 83.73667,29.62534 84.72731,30.85569 0.7519,0.93384 1.14791,4.69165 1.14791,10.89262 l 0,9.46695 -2.5254,-0.10793 c -1.38898,-0.0594 -20.08848,-3.50143 -41.55445,-7.64904 z"
     id="path4005"
     style="fill:#0000ff;fill-opacity:1;stroke:none" />
  <path
     d="m 81.731216,324.31564 c -10.354174,-4.2222 -19.11442,-7.8004 -19.467212,-7.95154 -0.644759,-0.27623 -10.170465,-65.99043 -9.642307,-66.51859 0.221026,-0.22102 72.256083,25.19482 72.888423,25.71694 0.36977,0.3053 3.26933,37.40541 2.9485,37.72623 -0.19424,0.19425 -2.41909,-0.0503 -4.9441,-0.5435 -6.388,-1.24767 -10.36227,-1.17743 -12.03734,0.21276 -1.81692,1.50791 -6.22522,10.21352 -7.74713,15.29923 -0.64238,2.1466 -1.61911,3.86517 -2.17051,3.81906 -0.5514,-0.0461 -9.47415,-3.53838 -19.828324,-7.76059 z"
     id="path4007"
     style="fill:#0000ff;fill-opacity:1;stroke:none" />
  <path
     d="M 104.68947,397.37354 C 87.264156,389.87132 72.507008,383.39023 71.895811,382.97111 70.86855,382.26668 63.0533,330.32988 63.853948,329.52834 c 0.184544,-0.18475 9.030383,3.12124 19.657421,7.34664 16.424639,6.53058 19.323351,7.96738 19.331661,9.58212 0.0541,10.5005 12.81335,28.3123 27.26146,38.05664 3.52356,2.37641 4.8754,3.91777 5.22748,5.96031 0.6647,3.8561 1.7903,20.6756 1.37869,20.60116 -0.18633,-0.0337 -14.59587,-6.19946 -32.02119,-13.70167 z"
     id="path4009"
     style="fill:#0000ff;fill-opacity:1;stroke:none" />
  <path
     d="m 336.44793,316.08929 c 0.30331,-4.54573 0.99784,-18.18294 1.54339,-30.3049 0.54556,-12.12196 1.15521,-22.87283 1.35477,-23.89083 0.27475,-1.40154 2.06135,-2.38941 7.35908,-4.06907 10.03537,-3.18175 17.25443,-7.70761 25.94293,-16.26448 4.18659,-4.12316 7.41818,-6.81051 7.18131,-5.97189 -0.23687,0.83862 -0.93931,8.8575 -1.56098,17.81972 l -1.1303,16.29496 -19.63006,26.39517 c -10.79653,14.51734 -20.07591,26.81392 -20.62083,27.32573 -0.7067,0.66375 -0.83266,-1.43916 -0.43931,-7.33441 z"
     id="path4011"
     style="fill:#ff0000;fill-opacity:1;stroke:none" />
  <path
     d="m 362.74029,359.48967 c 0,-3.54511 -2.66409,-4.86396 -13.31579,-6.59196 -15.07821,-2.44611 -14.23412,-2.11992 -14.23412,-5.5006 0,-2.45534 3.45533,-7.59481 19.51452,-29.02599 15.23334,-20.32908 19.58098,-25.5859 19.81746,-23.96172 0.29803,2.04687 -3.03045,46.64818 -4.01655,53.82145 -0.30521,2.22023 -1.94103,5.66662 -4.13524,8.71224 -3.32308,4.61252 -3.63028,4.82802 -3.63028,2.54658 z"
     id="path4013"
     style="fill:#ff0000;fill-opacity:1;stroke:none" />
  <path
     d="m 328.35632,473.92371 c 0.2022,-1.9552 0.83708,-13.2574 1.41084,-25.11599 l 1.04322,-21.56106 18.49036,-26.5194 c 10.1697,-14.58566 18.61257,-25.9148 18.76193,-25.17586 0.14936,0.73894 -0.56103,11.30408 -1.57863,23.47809 l -1.85019,22.13457 -17.61231,27.35735 c -9.68677,15.04655 -17.93194,27.71733 -18.32259,28.1573 -0.39065,0.43997 -0.54483,-0.79978 -0.34263,-2.755 z"
     id="path4015"
     style="fill:#ff0000;fill-opacity:1;stroke:none" />
  <path
     d="m 331.84634,404.70817 c 0.31019,-1.26271 0.56961,-5.04218 0.57651,-8.39883 l 0.0125,-6.10299 4.82123,-3.07674 c 2.65168,-1.6922 7.40404,-5.25845 10.5608,-7.925 3.15676,-2.66654 5.73957,-4.65214 5.73957,-4.41244 0,0.2397 -5.01179,7.58542 -11.13731,16.32382 -6.12551,8.7384 -10.88352,14.85488 -10.57334,13.59218 z"
     id="path4017"
     style="fill:#ff0000;fill-opacity:1;stroke:none" />
  <path
     d="m 377.43603,400.00476 c 10e-4,-0.69616 0.82229,-11.04097 1.82431,-22.98848 l 1.82184,-21.72275 13.48985,-19.36389 c 7.41942,-10.65013 13.60627,-19.24746 13.74857,-19.10517 0.14229,0.14229 -0.75446,9.91086 -1.99277,21.70792 l -2.25148,21.44921 -8.90397,13.86873 c -15.55754,24.23224 -17.73886,27.44887 -17.73635,26.15443 z"
     id="path4019"
     style="fill:#ff0000;fill-opacity:1;stroke:none" />
  <path
     d="m 382.94877,331.65499 c 0.003,-0.47983 1.03536,-13.26987 2.29442,-28.42232 1.25907,-15.15245 2.28984,-27.78995 2.29062,-28.08333 7.7e-4,-0.29337 6.61338,-9.35143 14.69468,-20.12901 8.08131,-10.77758 14.69129,-19.21577 14.68884,-18.75152 -0.002,0.46424 -1.24219,12.591 -2.75499,26.94834 -1.5128,14.35735 -2.75054,26.78309 -2.75054,27.61275 0,0.82967 -6.02072,10.15843 -13.37938,20.73058 -13.91514,19.99184 -15.09241,21.5602 -15.08365,20.09451 z"
     id="path4021"
     style="fill:#ff0000;fill-opacity:1;stroke:none" />
  <path
     d="m 389.37774,252.65366 c 0.003,-0.46612 1.21752,-15.61824 2.69842,-33.67137 1.78166,-21.71964 3.10002,-33.39301 3.89703,-34.50622 4.46119,-6.23105 29.60858,-37.72981 29.89409,-37.4443 0.19427,0.19427 -1.17642,15.16976 -3.04597,33.27887 l -3.39919,32.92566 -15.02513,20.13243 c -8.26382,11.07284 -15.02248,19.75106 -15.01925,19.28493 z"
     id="path4023"
     style="fill:#ff0000;fill-opacity:1;stroke:none" />
  <path
     d="m 432.53339,193.76074 c 0,-4.21817 6.54896,-64.00393 7.11056,-64.91262 1.88446,-3.04911 23.46413,-29.980269 23.77433,-29.670065 0.20496,0.204957 -1.54994,15.207445 -3.89978,33.338855 l -4.27244,32.96621 -10.56082,14.23412 c -12.65335,17.05448 -12.15185,16.4749 -12.15185,14.0435 z"
     id="path4025"
     style="fill:#ff0000;fill-opacity:1;stroke:none" />
  <path
     d="m 424.26842,272.52499 c 0,-0.6761 1.26262,-13.24984 2.80583,-27.94165 l 2.80583,-26.71237 10.96912,-14.646 c 8.03032,-10.7221 10.95706,-14.04934 10.92409,-12.41897 -0.0248,1.22487 -1.58287,13.79799 -3.46245,27.94028 l -3.41742,25.71325 -9.53137,13.77495 c -10.8215,15.63947 -11.09363,15.99002 -11.09363,14.29051 z"
     id="path4029"
     style="fill:#ff0000;fill-opacity:1;stroke:none" />
  <path
     d="m 417.83818,335.14465 c -0.001,-1.38898 0.86115,-10.49845 1.91601,-20.24328 l 1.91794,-17.71786 9.7927,-14.09888 c 5.38599,-7.75437 9.88718,-14.01281 10.00265,-13.90763 0.11548,0.10518 -0.98386,9.36172 -2.44297,20.57009 l -2.65293,20.37885 -8.92115,13.77206 c -4.90663,7.57463 -9.07621,13.77205 -9.26573,13.77205 -0.18953,0 -0.34546,-1.13643 -0.34652,-2.5254 z"
     id="path4031"
     style="fill:#ff0000;fill-opacity:1;stroke:none" />
  <path
     d="m 210.34397,399.98055 c -12.10204,-1.26374 -29.77091,-5.11372 -41.64987,-9.07535 -41.86987,-13.96362 -63.18858,-39.41359 -52.95081,-63.21193 1.11594,-2.59407 2.20217,-4.7165 2.41384,-4.7165 0.21167,0 27.33188,5.13229 60.26713,11.40508 32.93525,6.27279 84.5635,15.45579 114.72946,20.40666 l 54.84719,9.00158 -2.50236,2.67103 c -4.43844,4.73763 -15.45367,12.38881 -24.01775,16.68275 -16.23926,8.14219 -40.48869,14.7243 -62.37955,16.93191 -11.10959,1.12036 -37.61197,1.06859 -48.75728,-0.0952 l 0,0 z"
     id="path4033"
     style="fill:#ff5555;fill-opacity:1;stroke:none" />
</svg>
