<?xml version="1.0" encoding="UTF-8" standalone="no"?>
<!-- Created with Inkscape (http://www.inkscape.org/) -->

<svg
   xmlns:dc="http://purl.org/dc/elements/1.1/"
   xmlns:cc="http://creativecommons.org/ns#"
   xmlns:rdf="http://www.w3.org/1999/02/22-rdf-syntax-ns#"
   xmlns:svg="http://www.w3.org/2000/svg"
   xmlns="http://www.w3.org/2000/svg"
   xmlns:sodipodi="http://sodipodi.sourceforge.net/DTD/sodipodi-0.dtd"
   xmlns:inkscape="http://www.inkscape.org/namespaces/inkscape"
   version="1.1"
   width="497"
   height="506"
   id="svg3039"
   inkscape:version="0.48.4 r9939"
   sodipodi:docname="logo_cube.svg">
  <sodipodi:namedview
     pagecolor="#ffffff"
     bordercolor="#666666"
     borderopacity="1"
     objecttolerance="10"
     gridtolerance="10"
     guidetolerance="10"
     inkscape:pageopacity="0"
     inkscape:pageshadow="2"
     inkscape:window-width="1280"
     inkscape:window-height="749"
     id="namedview53"
     showgrid="false"
     inkscape:zoom="1.0889328"
     inkscape:cx="248.5"
     inkscape:cy="253"
     inkscape:window-x="0"
     inkscape:window-y="26"
     inkscape:window-maximized="1"
     inkscape:current-layer="svg3039" />
  <metadata
     id="metadata3045">
    <rdf:RDF>
      <cc:Work
         rdf:about="">
        <dc:format>image/svg+xml</dc:format>
        <dc:type
           rdf:resource="http://purl.org/dc/dcmitype/StillImage" />
        <dc:title />
      </cc:Work>
    </rdf:RDF>
  </metadata>
  <defs
     id="defs3043" />
  <path
     d="M 203.91342,8.7241595 33.353867,150.4781 335.8128,252.05578 472.07053,79.030584 z"
     id="path3049"
     style="fill:none;stroke:#000000;stroke-width:10;stroke-linecap:butt;stroke-linejoin:round;stroke-miterlimit:4;stroke-opacity:1;stroke-dasharray:none"
     inkscape:connector-curvature="0"
     sodipodi:nodetypes="ccccc" />
  <path
     d="M 334.37872,250.77096 322.71022,495.86986 65.958067,386.70193 33.265807,150.03921"
     id="path3819"
     style="fill:none;stroke:#000000;stroke-width:10;stroke-linecap:butt;stroke-linejoin:round;stroke-miterlimit:4;stroke-opacity:1;stroke-dasharray:none"
     inkscape:connector-curvature="0"
     sodipodi:nodetypes="cccc" />
  <path
     d="M 322.34182,496.43197 441.63227,312.14064 471.98444,78.818688"
     id="path3821"
     style="fill:none;stroke:#000000;stroke-width:10;stroke-linecap:butt;stroke-linejoin:round;stroke-miterlimit:4;stroke-opacity:1;stroke-dasharray:none"
     inkscape:connector-curvature="0"
     sodipodi:nodetypes="ccc" />
  <path
     d="M 283.76407,33.059891 123.05626,179.07441 143.25953,418.75862"
     id="path3837"
     style="fill:none;stroke:#000000;stroke-width:10;stroke-linecap:butt;stroke-linejoin:round;stroke-miterlimit:4;stroke-opacity:1;stroke-dasharray:none"
     inkscape:connector-curvature="0"
     sodipodi:nodetypes="ccc" />
  <path
     d="M 231.41924,455.49183 225.90926,213.97096 376.51543,53.263158"
     id="path3839"
     style="fill:none;stroke:#000000;stroke-width:10;stroke-linecap:butt;stroke-linejoin:round;stroke-miterlimit:4;stroke-opacity:1;stroke-dasharray:none"
     inkscape:connector-curvature="0"
     sodipodi:nodetypes="ccc" />
  <path
     d="M 429.77858,129.48457 156.59218,49.558602"
     id="path3841"
     style="fill:none;stroke:#000000;stroke-width:10;stroke-linecap:butt;stroke-linejoin:round;stroke-miterlimit:4;stroke-opacity:1;stroke-dasharray:none"
     inkscape:connector-curvature="0"
     sodipodi:nodetypes="cc" />
  <path
     d="M 99.179673,98.261343 386.61706,185.50272"
     id="path3843"
     style="fill:none;stroke:#000000;stroke-width:10;stroke-linecap:butt;stroke-linejoin:round;stroke-miterlimit:4;stroke-opacity:1;stroke-dasharray:none"
     inkscape:connector-curvature="0"
     sodipodi:nodetypes="cc" />
  <path
     d="M 370.08711,422.43194 389.37205,184.58439"
     id="path3845"
     style="fill:none;stroke:#000000;stroke-width:10;stroke-linecap:butt;stroke-linejoin:round;stroke-miterlimit:4;stroke-opacity:1;stroke-dasharray:none"
     inkscape:connector-curvature="0"
     sodipodi:nodetypes="cc" />
  <path
     d="M 409.34574,360.90381 433.64182,128.31386"
     id="path3847"
     style="fill:none;stroke:#000000;stroke-width:10;stroke-linecap:butt;stroke-linejoin:round;stroke-miterlimit:4;stroke-opacity:1;stroke-dasharray:none"
     inkscape:connector-curvature="0"
     sodipodi:nodetypes="cc" />
  <path
     d="M 461.00182,167.13612 329.68058,342.53721 46.834846,241.52087"
     id="path3849"
     style="fill:none;stroke:#000000;stroke-width:10;stroke-linecap:butt;stroke-linejoin:round;stroke-miterlimit:4;stroke-opacity:1;stroke-dasharray:none"
     inkscape:connector-curvature="0"
     sodipodi:nodetypes="ccc" />
  <path
     d="M 55.099819,319.57895 324.1706,427.02359 450.48912,246.17499"
     id="path3851"
     style="fill:none;stroke:#000000;stroke-width:10;stroke-linecap:butt;stroke-linejoin:round;stroke-miterlimit:4;stroke-opacity:1;stroke-dasharray:none"
     inkscape:connector-curvature="0"
     sodipodi:nodetypes="ccc" />
  <path
     d="m 256.21415,219.02177 c 0,13.76371 -4.67598,27.48324 -13.05503,38.30451 -8.37905,10.82127 -20.40722,18.67464 -33.58174,21.92612 -13.17451,3.25148 -27.41065,1.88017 -39.74765,-3.82819 -12.337,-5.70835 -22.69581,-15.71693 -28.92246,-27.94344 -6.22665,-12.2265 -8.28116,-26.59241 -5.73538,-40.10986 2.54578,-13.51744 9.67572,-26.09968 19.90742,-35.1296 10.2317,-9.02992 23.49937,-14.44944 37.0424,-15.13084 13.54303,-0.6814 27.27427,3.37974 38.33709,11.33872 l -35.31361,50.57258 z"
     transform="translate(-58.77314,-33.978222)"
     id="path3853"
     style="fill:#ffffff;fill-opacity:1;stroke:#000000;stroke-width:10;stroke-linejoin:round;stroke-miterlimit:4;stroke-opacity:1;stroke-dasharray:none"
     inkscape:connector-curvature="0"
     sodipodi:nodetypes="csssssssccc" />
  <path
     d="m 256.21415,219.02177 c 0,13.80349 -4.85128,27.55943 -13.51018,38.30907 -8.6589,10.74964 -21.06557,18.41876 -34.55076,21.35752 -13.4852,2.93876 -27.95585,1.1269 -40.30045,-5.04535 -12.3446,-6.17224 -22.4783,-16.66216 -28.22266,-29.21329 -5.74436,-12.55113 -7.05978,-27.07697 -3.6624,-40.45395 3.39738,-13.37697 11.48443,-25.51297 22.52275,-33.79804 11.03831,-8.28507 24.95172,-12.66203 38.74692,-12.18911 13.7952,0.47293 27.37692,5.79253 37.82371,14.81476 l -39.91589,46.21839 z"
     transform="translate(130.86207,-24.335749)"
     id="path3853-3"
     style="fill:#ffffff;fill-opacity:1;stroke:#000000;stroke-width:10;stroke-linejoin:round;stroke-miterlimit:4;stroke-opacity:1;stroke-dasharray:none"
     inkscape:connector-curvature="0"
     sodipodi:nodetypes="csssssssccc" />
  <path
     d="m 353.07562,383.86024 c -5.16697,8.31103 -13.63696,16.09022 -24.75423,22.7353 -11.11727,6.64508 -24.87257,12.15052 -40.20096,16.09009 -30.65676,7.87913 -67.60716,9.21076 -100.15323,3.60936 -32.54607,-5.6014 -60.26461,-18.06299 -75.13045,-33.77688 -7.43292,-7.85694 -11.73815,-16.47072 -12.58238,-25.17446 -0.844234,-8.70373 1.77324,-17.49018 7.64976,-25.67909 l 121.67845,22.45342 z"
     transform="matrix(0.98899736,0,0,1.0212989,8.5176154,-32.137527)"
     id="path3881"
     style="fill:#ac2000;fill-opacity:1;stroke:#000000;stroke-width:10;stroke-linejoin:round;stroke-miterlimit:4;stroke-opacity:1;stroke-dasharray:none"
     inkscape:connector-curvature="0"
     sodipodi:nodetypes="csssssccc" />
  <path
     d="m 150.59868,195.06228 c 0.18156,6.55732 -3.34933,12.97392 -8.09457,14.71072 -2.37263,0.86841 -4.96327,0.63626 -7.22745,-0.6475 -2.26417,-1.28376 -4.18704,-3.61066 -5.36454,-6.49146 -2.355,-5.76159 -1.34125,-13.60298 2.32537,-17.97867 1.83331,-2.18784 4.23005,-3.5205 6.68625,-3.71773 2.45619,-0.19723 4.95567,0.74229 6.97295,2.62106 l -6.31048,12.04565 z"
     transform="translate(-7.3466426,-7.346643)"
     id="path3883"
     style="fill:#000000;fill-opacity:1;stroke:#000000;stroke-width:10;stroke-linejoin:round;stroke-miterlimit:4;stroke-opacity:1;stroke-dasharray:none"
     inkscape:connector-curvature="0"
     sodipodi:nodetypes="csssssccc" />
  <path
     d="m 150.59868,195.06228 c 0.18156,6.55732 -3.34933,12.97392 -8.09457,14.71072 -2.37263,0.86841 -4.96327,0.63626 -7.22745,-0.6475 -2.26417,-1.28376 -4.18704,-3.61066 -5.36454,-6.49146 -2.355,-5.76159 -1.34125,-13.60298 2.32537,-17.97867 1.83331,-2.18784 4.23005,-3.5205 6.68625,-3.71773 2.45619,-0.19723 4.95567,0.74229 6.97295,2.62106 l -6.31048,12.04565 z"
     transform="translate(183.66605,-1.8367533)"
     id="path3883-4"
     style="fill:#000000;fill-opacity:1;stroke:#000000;stroke-width:10;stroke-linejoin:round;stroke-miterlimit:4;stroke-opacity:1;stroke-dasharray:none"
     inkscape:connector-curvature="0"
     sodipodi:nodetypes="csssssccc" />
  <path
     d="m 59.691289,153.62522 c -7.828766,-2.65414 -14.105404,-5.20439 -13.948084,-5.66721 0.15732,-0.46282 12.053249,-10.60064 26.4354,-22.52848 l 26.149362,-21.68698 22.031553,6.69593 c 12.11736,3.68276 22.52507,6.86044 23.12826,7.0615 0.60319,0.20106 -2.81738,0.4034 -7.60126,0.44964 -11.30939,0.10932 -20.11944,2.20005 -29.31123,6.95591 -12.31291,6.37072 -21.971605,15.72618 -28.366361,27.4758 -1.850854,3.40072 -3.571815,6.15759 -3.824355,6.12637 -0.252541,-0.0312 -6.86452,-2.22833 -14.693285,-4.88248 z"
     id="path3943"
     style="fill:#ffff00;fill-opacity:1;stroke:none"
     inkscape:connector-curvature="0"
     sodipodi:nodetypes="ssscssssscs" />
  <path
     d="m 169.3558,126.90119 c -2.29583,-1.36179 -6.85848,-3.57712 -8.90182,-4.32214 -0.79222,-0.28885 -1.39443,-0.57115 -1.33826,-0.62732 0.0928,-0.0928 14.11711,4.04425 14.3632,4.23708 0.11122,0.0871 -1.85972,1.88383 -2.05688,1.87503 -0.0631,-0.003 -0.99294,-0.52601 -2.06624,-1.16265 z"
     id="path3945"
     style="fill:#ffff00;fill-opacity:1;stroke:none"
     inkscape:connector-curvature="0"
     sodipodi:nodetypes="sssccs" />
  <path
     d="m 211.67495,204.57011 c -8.34245,-2.8665 -10.06735,-3.77349 -9.90479,-5.20819 0.10826,-0.95548 0.45592,-4.8366 0.77257,-8.62471 0.93228,-11.15278 2.70022,-10.47628 -28.79953,-11.01997 l -26.60294,-0.45916 14.08762,-20.09901 c 8.8027,-12.55894 15.96327,-21.77076 19.08742,-24.55526 l 4.9998,-4.45625 43.33596,13.15653 43.33597,13.15652 -7.58151,8.18458 c -26.10481,28.18131 -40.81598,43.53097 -41.65995,43.46808 -0.53294,-0.0397 -5.51472,-1.63414 -11.07062,-3.54316 z"
     id="path3947"
     style="fill:#ffff00;fill-opacity:1;stroke:none"
     inkscape:connector-curvature="0"
     sodipodi:nodetypes="sssscsscccscs" />
  <path
     d="m 236.92904,134.36429 c -21.97105,-6.70465 -40.44298,-12.36369 -41.04873,-12.57565 -1.28915,-0.45108 43.30406,-41.251072 45.08624,-41.251072 0.66208,0 16.65775,4.506503 35.54593,10.01445 18.88818,5.507948 36.73251,10.707002 39.65406,11.553452 l 5.31192,1.53901 -7.60774,8.3443 c -16.54662,18.14863 -33.32899,34.67445 -35.15765,34.62023 -1.01017,-0.03 -19.81298,-5.54007 -41.78403,-12.24472 z"
     id="path3949"
     style="fill:#ffff00;fill-opacity:1;stroke:none"
     inkscape:connector-curvature="0"
     sodipodi:nodetypes="ssssscscs" />
  <path
     d="m 144.42184,106.38747 c -19.31135,-5.8836 -35.11811,-10.948352 -35.12613,-11.255006 -0.008,-0.306655 10.56754,-9.350405 23.50126,-20.097222 l 23.51584,-19.539667 35.48688,10.332671 c 19.51779,5.68297 35.5801,10.411956 35.69404,10.508857 0.11393,0.0969 -9.88423,9.346621 -22.21814,20.554931 -12.92316,11.743766 -23.12803,20.339366 -24.08375,20.285816 -0.91215,-0.0511 -17.45864,-4.90678 -36.77,-10.79038 z"
     id="path3951"
     style="fill:#ffff00;fill-opacity:1;stroke:none"
     inkscape:connector-curvature="0"
     sodipodi:nodetypes="ccscscsscc" />
  <path
     d="m 201.53461,57.279519 -34.93526,-10.261007 19.32364,-16.119278 19.32365,-16.119278 34.66486,9.231801 c 19.06567,5.07749 34.56249,9.473906 34.43739,9.769814 -0.36474,0.862667 -36.91326,33.901939 -37.41985,33.826936 -0.25254,-0.03739 -16.18004,-4.685434 -35.39443,-10.328988 z"
     id="path3953"
     style="fill:#ffff00;fill-opacity:1;stroke:none"
     inkscape:connector-curvature="0"
     sodipodi:nodetypes="scccscss" />
  <path
     d="M 289.56926,82.952884 C 268.77083,76.826185 251.50215,71.55682 251.19441,71.243186 c -0.91458,-0.932106 36.3959,-34.351771 38.00406,-34.040908 6.74131,1.303124 74.88137,20.195946 74.75404,20.726645 -0.46948,1.956877 -33.70611,36.368883 -35.03453,36.273507 -0.84337,-0.06055 -18.5503,-5.122845 -39.34872,-11.249546 z"
     id="path3955"
     style="fill:#ffff00;fill-opacity:1;stroke:none"
     inkscape:connector-curvature="0"
     sodipodi:nodetypes="csscscc" />
  <path
     d="m 385.85098,110.98532 c -23.40247,-6.89717 -42.61853,-12.811096 -42.70236,-13.142056 -0.31169,-1.23046 33.58132,-36.589769 35.05171,-36.568141 2.21591,0.0326 81.96099,21.503573 82.16808,22.123362 0.22878,0.684686 -30.77149,40.326635 -31.44752,40.213875 -0.28599,-0.0477 -19.66745,-5.72987 -43.06991,-12.62704 z"
     id="path3957"
     style="fill:#ffff00;fill-opacity:1;stroke:none"
     inkscape:connector-curvature="0"
     sodipodi:nodetypes="ccssscc" />
  <path
     d="m 369.92867,174.74631 -15.31072,-4.70376 8.19366,-9.43904 c 9.47258,-10.91235 10.08819,-12.98973 5.20908,-17.57817 -1.64152,-1.54373 -7.11706,-4.88657 -12.16788,-7.42854 -11.55308,-5.81443 -20.80327,-7.745 -33.75474,-7.0448 l -8.95982,0.4844 10.26716,-10.9707 c 5.64694,-6.03389 10.71198,-10.8044 11.25565,-10.60114 0.54367,0.20326 19.99792,5.86917 43.23168,12.59091 23.23376,6.72173 42.58702,12.51545 43.00724,12.87493 0.61281,0.52422 -30.74221,41.74239 -34.61631,45.50535 -0.76549,0.74353 -5.13185,-0.24145 -16.355,-3.68944 z"
     id="path3959"
     style="fill:#ffff00;fill-opacity:1;stroke:none"
     inkscape:connector-curvature="0"
     sodipodi:nodetypes="ccsssscssssscc" />
  <path
     d="m 339.85127,187.29347 c 2.73336,-3.62301 6.78524,-7.57623 7.7653,-7.57623 0.90121,0 26.80277,7.65051 29.35784,8.67139 0.50508,0.2018 -7.9138,0.39954 -18.70863,0.43942 -18.5484,0.0685 -19.56034,-0.0158 -18.41451,-1.53458 z"
     id="path3961"
     style="fill:#ffff00;fill-opacity:1;stroke:none"
     inkscape:connector-curvature="0"
     sodipodi:nodetypes="sssss" />
  <path
     d="m 250.1084,217.45476 -14.8297,-5.16698 12.07471,-13.05012 12.07472,-13.05012 0.54872,11.22855 c 0.41991,8.59279 1.10127,12.84531 2.90266,18.11603 1.29468,3.78812 2.2875,6.93296 2.20628,6.98855 -0.0812,0.0556 -6.82105,-2.22407 -14.97739,-5.06591 z"
     id="path3963"
     style="fill:#ffff00;fill-opacity:1;stroke:none"
     inkscape:connector-curvature="0"
     sodipodi:nodetypes="ccccssccc" />
  <path
     d="m 336.44793,316.08929 c 0.30331,-4.54573 0.99784,-18.18294 1.54339,-30.3049 0.54556,-12.12196 1.15521,-22.87283 1.35477,-23.89083 0.27475,-1.40154 2.06135,-2.38941 7.35908,-4.06907 10.03537,-3.18175 17.25443,-7.70761 25.94293,-16.26448 4.18659,-4.12316 7.41818,-6.81051 7.18131,-5.97189 -0.23687,0.83862 -0.93931,8.8575 -1.56098,17.81972 l -1.1303,16.29496 -19.63006,26.39517 c -10.79653,14.51734 -20.07591,26.81392 -20.62083,27.32573 -0.7067,0.66375 -0.83266,-1.43916 -0.43931,-7.33441 z"
     id="path4011"
     style="fill:#ff0000;fill-opacity:1;stroke:none"
     inkscape:connector-curvature="0"
     sodipodi:nodetypes="ssssssscsss" />
  <path
     d="m 362.74029,359.48967 c 0,-3.54511 -2.66409,-4.86396 -13.31579,-6.59196 -15.07821,-2.44611 -14.23412,-2.11992 -14.23412,-5.5006 0,-2.45534 3.45533,-7.59481 19.51452,-29.02599 15.23334,-20.32908 19.58098,-25.5859 19.81746,-23.96172 0.29803,2.04687 -3.03045,46.64818 -4.01655,53.82145 -0.30521,2.22023 -1.94103,5.66662 -4.13524,8.71224 -3.32308,4.61252 -3.63028,4.82802 -3.63028,2.54658 z"
     id="path4013"
     style="fill:#ff0000;fill-opacity:1;stroke:none"
     inkscape:connector-curvature="0"
     sodipodi:nodetypes="ssssssss" />
  <path
     d="m 328.35632,473.92371 c 0.2022,-1.9552 0.83708,-13.2574 1.41084,-25.11599 l 1.04322,-21.56106 18.49036,-26.5194 c 10.1697,-14.58566 18.61257,-25.9148 18.76193,-25.17586 0.14936,0.73894 -0.56103,11.30408 -1.57863,23.47809 l -1.85019,22.13457 -17.61231,27.35735 c -9.68677,15.04655 -17.93194,27.71733 -18.32259,28.1573 -0.39065,0.43997 -0.54483,-0.79978 -0.34263,-2.755 z"
     id="path4015"
     style="fill:#ff0000;fill-opacity:1;stroke:none"
     inkscape:connector-curvature="0"
     sodipodi:nodetypes="sscssscsss" />
  <path
     d="m 331.84634,404.70817 c 0.31019,-1.26271 0.56961,-5.04218 0.57651,-8.39883 l 0.0125,-6.10299 4.82123,-3.07674 c 2.65168,-1.6922 7.40404,-5.25845 10.5608,-7.925 3.15676,-2.66654 5.73957,-4.65214 5.73957,-4.41244 0,0.2397 -5.01179,7.58542 -11.13731,16.32382 -6.12551,8.7384 -10.88352,14.85488 -10.57334,13.59218 z"
     id="path4017"
     style="fill:#ff0000;fill-opacity:1;stroke:none"
     inkscape:connector-curvature="0"
     sodipodi:nodetypes="cscsssscc" />
  <path
     d="m 377.43603,400.00476 c 10e-4,-0.69616 0.82229,-11.04097 1.82431,-22.98848 l 1.82184,-21.72275 13.48985,-19.36389 c 7.41942,-10.65013 13.60627,-19.24746 13.74857,-19.10517 0.14229,0.14229 -0.75446,9.91086 -1.99277,21.70792 l -2.25148,21.44921 -8.90397,13.86873 c -15.55754,24.23224 -17.73886,27.44887 -17.73635,26.15443 z"
     id="path4019"
     style="fill:#ff0000;fill-opacity:1;stroke:none"
     inkscape:connector-curvature="0"
     sodipodi:nodetypes="cscscscsc" />
  <path
     d="m 382.94877,331.65499 c 0.003,-0.47983 1.03536,-13.26987 2.29442,-28.42232 1.25907,-15.15245 2.28984,-27.78995 2.29062,-28.08333 7.7e-4,-0.29337 6.61338,-9.35143 14.69468,-20.12901 8.08131,-10.77758 14.69129,-19.21577 14.68884,-18.75152 -0.002,0.46424 -1.24219,12.591 -2.75499,26.94834 -1.5128,14.35735 -2.75054,26.78309 -2.75054,27.61275 0,0.82967 -6.02072,10.15843 -13.37938,20.73058 -13.91514,19.99184 -15.09241,21.5602 -15.08365,20.09451 z"
     id="path4021"
     style="fill:#ff0000;fill-opacity:1;stroke:none"
     inkscape:connector-curvature="0"
     sodipodi:nodetypes="cscscsssc" />
  <path
     d="m 389.37774,252.65366 c 0.003,-0.46612 1.21752,-15.61824 2.69842,-33.67137 1.78166,-21.71964 3.10002,-33.39301 3.89703,-34.50622 4.46119,-6.23105 29.60858,-37.72981 29.89409,-37.4443 0.19427,0.19427 -1.17642,15.16976 -3.04597,33.27887 l -3.39919,32.92566 -15.02513,20.13243 c -8.26382,11.07284 -15.02248,19.75106 -15.01925,19.28493 z"
     id="path4023"
     style="fill:#ff0000;fill-opacity:1;stroke:none"
     inkscape:connector-curvature="0"
     sodipodi:nodetypes="csssscsc" />
  <path
     d="m 424.26842,272.52499 c 0,-0.6761 1.26262,-13.24984 2.80583,-27.94165 l 2.80583,-26.71237 10.96912,-14.646 c 8.03032,-10.7221 10.95706,-14.04934 10.92409,-12.41897 -0.0248,1.22487 -1.58287,13.79799 -3.46245,27.94028 l -3.41742,25.71325 -9.53137,13.77495 c -10.8215,15.63947 -11.09363,15.99002 -11.09363,14.29051 z"
     id="path4029"
     style="fill:#ff0000;fill-opacity:1;stroke:none"
     inkscape:connector-curvature="0"
     sodipodi:nodetypes="sscscscss" />
  <path
     d="m 417.83818,335.14465 c -0.001,-1.38898 0.86115,-10.49845 1.91601,-20.24328 l 1.91794,-17.71786 9.7927,-14.09888 c 5.38599,-7.75437 9.88718,-14.01281 10.00265,-13.90763 0.11548,0.10518 -0.98386,9.36172 -2.44297,20.57009 l -2.65293,20.37885 -8.92115,13.77206 c -4.90663,7.57463 -9.07621,13.77205 -9.26573,13.77205 -0.18953,0 -0.34546,-1.13643 -0.34652,-2.5254 z"
     id="path4031"
     style="fill:#ff0000;fill-opacity:1;stroke:none"
     inkscape:connector-curvature="0"
     sodipodi:nodetypes="cscscscssc" />
  <path
     d="m 210.34397,399.98055 c -12.10204,-1.26374 -29.77091,-5.11372 -41.64987,-9.07535 -41.86987,-13.96362 -63.18858,-39.41359 -52.95081,-63.21193 1.11594,-2.59407 2.20217,-4.7165 2.41384,-4.7165 0.21167,0 27.33188,5.13229 60.26713,11.40508 32.93525,6.27279 84.5635,15.45579 114.72946,20.40666 l 54.84719,9.00158 -2.50236,2.67103 c -4.43844,4.73763 -15.45367,12.38881 -24.01775,16.68275 -16.23926,8.14219 -40.48869,14.7243 -62.37955,16.93191 -11.10959,1.12036 -37.61197,1.06859 -48.75728,-0.0952 l 0,0 z"
     id="path4033"
     style="fill:#ff5555;fill-opacity:1;stroke:none"
     inkscape:connector-curvature="0"
     sodipodi:nodetypes="cssssscsssccc" />
  <path
     style="fill:#0000ff;fill-opacity:1;stroke:none"
     d="m 277.26694,471.01988 c -22.11755,-9.41678 -40.34458,-17.20655 -40.50451,-17.31058 -0.25312,-0.16467 -0.35132,-2.80746 -0.7585,-20.41489 -0.25725,-11.12415 -0.4684,-20.50348 -0.46922,-20.84295 l -0.001,-0.61721 2.23147,-3.1e-4 c 6.35761,-8.7e-4 18.04852,-0.70511 25.30591,-1.52436 1.93236,-0.21813 3.72704,-0.40649 3.98817,-0.41856 0.37345,-0.0173 53.21517,20.95278 53.54497,21.24913 0.088,0.0791 -2.38972,53.50908 -2.58565,55.7572 -0.0673,0.77222 -0.19636,1.27437 -0.32458,1.26294 -0.11706,-0.0104 -18.30903,-7.72361 -40.42658,-17.1404 l 0,-10e-6 z"
     id="path3798"
     inkscape:connector-curvature="0" />
  <path
     style="fill:#0000ff;fill-opacity:1;stroke:none"
     d="m 102.85281,396.46286 c -22.482549,-9.62881 -31.77459,-14.03273 -31.999903,-15.16619 -0.951672,-4.7875 -7.22192,-51.48756 -6.95276,-51.78333 0.175635,-0.193 8.883694,3.11299 19.351244,7.34664 l 19.031909,7.69755 1.07629,4.84212 c 2.56907,11.55797 12.3759,24.78515 25.00626,33.72775 7.24081,5.12667 7.00556,4.57216 8.08406,19.05536 0.48404,6.50022 0.3583,8.01759 -0.65817,7.9422 -0.69109,-0.0513 -15.51361,-6.1992 -32.93893,-13.6621 z"
     id="path3804"
     inkscape:connector-curvature="0" />
  <path
     style="fill:#0000ff;fill-opacity:1;stroke:none"
     d="m 187.79837,432.5356 c -20.70835,-8.80139 -38.10889,-16.59489 -38.66787,-17.31889 -0.96955,-1.25578 -2.70059,-19.4952 -1.92394,-20.27185 0.20477,-0.20476 3.22296,0.83569 6.7071,2.31211 16.96038,7.18705 40.02705,12.40939 63.37396,14.34798 l 7.44932,0.61855 0.66091,17.90131 c 0.3635,9.84572 0.52392,18.01651 0.35648,18.15731 -0.16743,0.1408 -17.24761,-6.94514 -37.95596,-15.74652 z"
     id="path3806"
     inkscape:connector-curvature="0" />
  <path
     style="fill:#0000ff;fill-opacity:1;stroke:none"
     d="m 304.18511,413.16833 c -8.21397,-3.32709 -14.61933,-6.32146 -14.23412,-6.65417 0.3852,-0.3327 4.21298,-1.573 8.50618,-2.7562 4.29319,-1.18321 11.29289,-3.51079 15.55488,-5.1724 4.26199,-1.66161 7.80603,-2.9267 7.87563,-2.81132 0.61053,1.01201 -1.14577,23.07059 -1.84975,23.23234 -0.50508,0.11605 -7.63885,-2.51116 -15.85282,-5.83825 z"
     id="path3808"
     inkscape:connector-curvature="0" />
  <path
     style="fill:#0000ff;fill-opacity:1;stroke:none"
     d="m 277.8383,341.21497 c -23.71488,-4.00629 -43.19023,-7.37264 -43.27856,-7.48078 -0.0883,-0.10814 -0.34727,-4.57619 -0.57541,-9.929 l -0.4148,-9.73237 8.33765,2.99287 c 4.58571,1.64607 24.96837,8.91838 45.29481,16.16068 21.87975,7.79575 36.95946,13.63614 36.96279,14.31574 0.003,0.63135 -0.71755,1.10496 -1.60144,1.05247 -0.88389,-0.0525 -21.01016,-3.37332 -44.72504,-7.37961 l 0,0 z"
     id="path3810"
     inkscape:connector-curvature="0" />
  <path
     style="fill:#0000ff;fill-opacity:1;stroke:none"
     d="m 278.71307,318.61584 c -24.749,-8.87343 -45.05934,-16.17131 -45.13408,-16.21751 -0.28479,-0.17603 -2.07016,-78.99712 -1.79558,-79.2717 0.1589,-0.15889 9.92346,3.03037 21.69902,7.08726 20.91215,7.2046 21.52931,7.48956 26.53454,12.25186 12.38376,11.78274 22.45741,16.00663 44.27408,18.56416 l 4.25311,0.49859 -0.37483,5.69963 c -0.49788,7.57077 -3.08058,62.35312 -3.08058,65.34301 0,1.28916 -0.30994,2.30664 -0.68875,2.26106 -0.37881,-0.0455 -20.93793,-7.34293 -45.68693,-16.21636 z"
     id="path3812"
     inkscape:connector-curvature="0" />
  <path
     style="fill:#0000ff;fill-opacity:1;stroke:none"
     d="m 178.61506,282.84366 c -23.23375,-8.34461 -42.32969,-15.24676 -42.4354,-15.33811 -0.10572,-0.0913 -0.46974,-3.49384 -0.80894,-7.56109 l -0.61672,-7.39501 7.51115,-0.62641 c 15.38473,-1.28303 29.72526,-8.06036 40.91619,-19.33697 3.54953,-3.5767 7.90006,-9.0941 9.66784,-12.26088 5.43763,-9.74086 3.74258,-9.20823 16.15086,-5.07511 l 10.93989,3.64401 0.57083,7.7319 c 0.99305,13.45086 1.88849,71.55953 1.10137,71.47278 -0.41463,-0.0457 -19.76331,-6.9105 -42.99707,-15.25511 z"
     id="path3814"
     inkscape:connector-curvature="0" />
  <path
     style="fill:#0000ff;fill-opacity:1;stroke:none"
     d="m 179.07423,323.48477 -39.02904,-7.5411 -1.48372,-17.83463 c -0.81604,-9.80905 -1.39322,-17.9462 -1.28261,-18.08256 0.54448,-0.67129 83.73667,29.62534 84.72731,30.85569 0.7519,0.93384 1.14791,4.69165 1.14791,10.89262 l 0,9.46695 -2.5254,-0.10793 c -1.38898,-0.0594 -20.08848,-3.50143 -41.55445,-7.64904 z"
     id="path3816"
     inkscape:connector-curvature="0" />
  <path
     style="fill:#0000ff;fill-opacity:1;stroke:none"
     d="m 81.731216,324.31564 c -10.354174,-4.2222 -19.093253,-7.8004 -19.420174,-7.95154 -0.528906,-0.24453 -9.999326,-66.09608 -9.577735,-66.59776 0.143271,-0.17049 72.307243,25.40839 72.776813,25.79611 0.36977,0.3053 3.26933,37.40541 2.9485,37.72623 -0.19424,0.19425 -2.41909,-0.0503 -4.9441,-0.5435 -6.388,-1.24767 -10.36227,-1.17743 -12.03734,0.21276 -1.90168,1.57826 -6.34679,10.48095 -7.65046,15.3224 -0.57458,2.13385 -1.54533,3.842 -2.15722,3.79589 -0.61188,-0.0461 -9.58411,-3.53838 -19.938284,-7.76059 z"
     id="path3818"
     inkscape:connector-curvature="0" />
  <path
     style="fill:#0000ff;fill-opacity:1;stroke:none"
     d="m 87.166994,250.14559 -36.348251,-13.02593 -5.229014,-38.1141 c -2.875958,-20.96275 -5.218746,-38.59485 -5.206195,-39.18243 0.014,-0.65539 6.057903,0.93574 15.635997,4.11637 l 15.613179,5.18473 -0.656855,3.23026 c -1.165429,5.73132 -0.604296,22.23477 0.978457,28.77735 3.318123,13.71601 11.703565,27.17666 22.454061,36.04417 6.581127,5.42842 16.602417,10.72325 23.596887,12.46759 2.52541,0.62982 4.85028,1.37405 5.16637,1.65384 0.79454,0.70331 1.68967,12.00135 0.94528,11.93097 -0.33092,-0.0313 -16.95838,-5.91856 -36.949916,-13.08282 l 0,0 z"
     id="path3820"
     inkscape:connector-curvature="0" />
  <path
     style="fill:#ff0000;fill-opacity:1;stroke:none"
     d="m 431.45678,197.82973 c 0.0332,-0.18744 1.63556,-15.50185 3.56076,-34.03203 1.92519,-18.53019 3.53906,-33.80567 3.58637,-33.94551 0.0473,-0.13985 5.56116,-7.20382 12.253,-15.69771 l 12.16698,-15.443445 0.60355,0 c 0.49723,0 0.60405,0.03539 0.60633,0.200884 0.009,0.621866 -8.64718,66.828671 -8.76822,67.066811 -0.12571,0.24732 -23.67948,31.77823 -23.96438,32.08058 -0.0639,0.0678 -0.0812,-0.0216 -0.0444,-0.22958 l 0,0 z"
     id="path3824"
     inkscape:connector-curvature="0" />
</svg>
